<svg width="60" height="60" viewBox="0 0 60 60" fill="none" xmlns="http://www.w3.org/2000/svg">
<circle cx="30" cy="30" r="30" fill="#EDF5E1"/>
<g filter="url(#filter0_d_174_53)">
<path d="M9.88773 35.7V28.68C9.40773 28.9867 8.82773 29.2333 8.14773 29.42L8.04773 29.1C8.80773 28.8733 9.38773 28.6 9.78773 28.28C10.2011 27.9467 10.4677 27.4533 10.5877 26.8C11.0411 26.7467 11.4011 26.66 11.6677 26.54V35.7H13.4077V36H8.28773V35.7H9.88773ZM20.3657 35.68C21.6057 35.68 22.519 35.4067 23.1057 34.86C23.6924 34.3133 23.9857 33.4467 23.9857 32.26C23.9857 31.0733 23.6524 30.2533 22.9857 29.8C22.319 29.3467 21.2857 29.12 19.8857 29.12H19.4257V35.68H20.3657ZM23.5057 25.46C23.5057 23.8333 22.539 23.02 20.6057 23.02C19.659 23.02 18.8657 23.2667 18.2257 23.76C18.0257 23.9067 17.8657 24.0867 17.7457 24.3C17.639 24.5133 17.5857 24.6867 17.5857 24.82C17.5857 24.94 17.639 25 17.7457 25C17.8524 25 17.9257 24.9467 17.9657 24.84C18.1257 24.4267 18.439 24.22 18.9057 24.22C19.199 24.22 19.4457 24.3267 19.6457 24.54C19.859 24.7533 19.9657 25.0467 19.9657 25.42C19.9657 25.7933 19.8324 26.0933 19.5657 26.32C19.299 26.5467 18.979 26.66 18.6057 26.66C18.2324 26.66 17.899 26.5133 17.6057 26.22C17.3257 25.9267 17.1857 25.5533 17.1857 25.1C17.1857 24.38 17.5324 23.7867 18.2257 23.32C18.919 22.84 19.919 22.6 21.2257 22.6C22.5324 22.6 23.6124 22.8333 24.4657 23.3C25.319 23.7667 25.7457 24.4667 25.7457 25.4C25.7457 26.32 25.4324 27.0733 24.8057 27.66C24.179 28.2467 23.3524 28.64 22.3257 28.84V28.96C23.4857 28.9867 24.4257 29.26 25.1457 29.78C25.8657 30.3 26.2257 31.0733 26.2257 32.1C26.2257 34.7 24.3724 36 20.6657 36H15.8857V35.68H17.3457V28.3C18.1324 28.5267 19.0657 28.64 20.1457 28.64C21.239 28.64 22.0724 28.3467 22.6457 27.76C23.219 27.16 23.5057 26.3933 23.5057 25.46ZM32.2382 35.68H33.8982V36H28.6982V35.68H30.1582V24.24L32.2382 23.78V35.68ZM29.8182 24.06C30.6982 24.06 31.4382 23.8933 32.0382 23.56C32.6382 23.2267 32.9382 22.74 32.9382 22.1C32.9382 21.46 32.7782 21 32.4582 20.72C32.1382 20.44 31.7715 20.3 31.3582 20.3C30.9449 20.3 30.6115 20.42 30.3582 20.66C30.1182 20.9 29.9982 21.1133 29.9982 21.3C29.9982 21.4867 30.0515 21.58 30.1582 21.58C30.2649 21.58 30.3382 21.5267 30.3782 21.42C30.5382 21.0067 30.8449 20.8 31.2982 20.8C31.5915 20.8 31.8382 20.9067 32.0382 21.12C32.2515 21.3333 32.3582 21.6267 32.3582 22C32.3582 22.3733 32.2249 22.6733 31.9582 22.9C31.6915 23.1267 31.3715 23.24 30.9982 23.24C30.6249 23.24 30.2915 23.0933 29.9982 22.8C29.7182 22.5067 29.5782 22.1267 29.5782 21.66C29.5782 21.18 29.7449 20.7733 30.0782 20.44C30.4115 20.1067 30.8382 19.94 31.3582 19.94C31.8915 19.94 32.3449 20.12 32.7182 20.48C33.1049 20.84 33.2982 21.3267 33.2982 21.94C33.2982 22.8067 32.9582 23.44 32.2782 23.84C31.6115 24.24 30.7849 24.44 29.7982 24.44C29.5449 24.44 29.1915 24.4133 28.7382 24.36V23.98C29.1915 24.0333 29.5515 24.06 29.8182 24.06ZM37.5885 36V35.68H39.0485V23.12L38.7085 23C38.5618 22.9467 38.3218 22.86 37.9885 22.74C37.6685 22.62 37.4018 22.5267 37.1885 22.46C36.5485 22.26 36.0152 22.16 35.5885 22.16C35.1618 22.16 34.8018 22.2733 34.5085 22.5C34.2152 22.7133 34.0685 22.9667 34.0685 23.26C34.0685 23.38 34.1218 23.44 34.2285 23.44C34.3352 23.44 34.4085 23.3867 34.4485 23.28C34.6085 22.8667 34.9152 22.66 35.3685 22.66C35.6618 22.66 35.9085 22.7667 36.1085 22.98C36.3218 23.1933 36.4285 23.4867 36.4285 23.86C36.4285 24.2333 36.2952 24.5333 36.0285 24.76C35.7618 24.9867 35.4418 25.1 35.0685 25.1C34.6952 25.1 34.3685 24.9533 34.0885 24.66C33.7952 24.3667 33.6485 23.96 33.6485 23.44C33.6485 22.9067 33.9018 22.4667 34.4085 22.12C34.7418 21.9067 35.1152 21.8 35.5285 21.8C35.9552 21.8 36.3818 21.86 36.8085 21.98C37.2485 22.0867 37.7618 22.2533 38.3485 22.48C38.9352 22.6933 39.3218 22.8267 39.5085 22.88C41.5485 23.5067 42.9552 23.82 43.7285 23.82C44.5018 23.82 45.1085 23.62 45.5485 23.22C45.9885 22.8067 46.2085 22.3667 46.2085 21.9C46.2085 21.4333 46.0885 21.08 45.8485 20.84C45.6085 20.5867 45.3952 20.46 45.2085 20.46C45.0218 20.46 44.9285 20.5133 44.9285 20.62C44.9285 20.7267 44.9818 20.8 45.0885 20.84C45.5018 21 45.7085 21.3067 45.7085 21.76C45.7085 22.0533 45.6018 22.3067 45.3885 22.52C45.1752 22.72 44.8818 22.82 44.5085 22.82C44.1352 22.82 43.8352 22.6867 43.6085 22.42C43.3818 22.1533 43.2685 21.8333 43.2685 21.46C43.2685 21.0867 43.4152 20.76 43.7085 20.48C44.0018 20.1867 44.3885 20.04 44.8685 20.04C45.3485 20.04 45.7485 20.2133 46.0685 20.56C46.4018 20.8933 46.5685 21.34 46.5685 21.9C46.5685 22.46 46.3218 22.9867 45.8285 23.48C45.3485 23.96 44.7018 24.2 43.8885 24.2C43.0885 24.2 42.1685 24.0533 41.1285 23.76V35.68H42.7885V36H37.5885Z" fill="#05386B"/>
<path d="M9.88773 35.7V35.9H10.0877V35.7H9.88773ZM9.88773 28.68H10.0877V28.3149L9.78006 28.5115L9.88773 28.68ZM8.14773 29.42L7.95684 29.4797L8.01444 29.664L8.20068 29.6129L8.14773 29.42ZM8.04773 29.1L7.99057 28.9083L7.7964 28.9663L7.85684 29.1597L8.04773 29.1ZM9.78773 28.28L9.91267 28.4362L9.91329 28.4357L9.78773 28.28ZM10.5877 26.8L10.5644 26.6014L10.4177 26.6186L10.391 26.7639L10.5877 26.8ZM11.6677 26.54H11.8677V26.2307L11.5857 26.3576L11.6677 26.54ZM11.6677 35.7H11.4677V35.9H11.6677V35.7ZM13.4077 35.7H13.6077V35.5H13.4077V35.7ZM13.4077 36V36.2H13.6077V36H13.4077ZM8.28773 36H8.08773V36.2H8.28773V36ZM8.28773 35.7V35.5H8.08773V35.7H8.28773ZM10.0877 35.7V28.68H9.68773V35.7H10.0877ZM9.78006 28.5115C9.32044 28.8051 8.75984 29.0446 8.09479 29.2271L8.20068 29.6129C8.89563 29.4221 9.49503 29.1682 9.99541 28.8485L9.78006 28.5115ZM8.33863 29.3603L8.23863 29.0403L7.85684 29.1597L7.95684 29.4797L8.33863 29.3603ZM8.1049 29.2917C8.87748 29.0612 9.48464 28.7786 9.91267 28.4362L9.6628 28.1238C9.29082 28.4214 8.73799 28.6854 7.99057 28.9083L8.1049 29.2917ZM9.91329 28.4357C10.3725 28.0653 10.658 27.5243 10.7844 26.8361L10.391 26.7639C10.2774 27.3823 10.0296 27.828 9.66218 28.1243L9.91329 28.4357ZM10.6111 26.9986C11.0747 26.9441 11.4571 26.8541 11.7498 26.7224L11.5857 26.3576C11.345 26.4659 11.0074 26.5492 10.5644 26.6014L10.6111 26.9986ZM11.4677 26.54V35.7H11.8677V26.54H11.4677ZM11.6677 35.9H13.4077V35.5H11.6677V35.9ZM13.2077 35.7V36H13.6077V35.7H13.2077ZM13.4077 35.8H8.28773V36.2H13.4077V35.8ZM8.48773 36V35.7H8.08773V36H8.48773ZM8.28773 35.9H9.88773V35.5H8.28773V35.9ZM23.1057 34.86L22.9694 34.7137L22.9694 34.7137L23.1057 34.86ZM22.9857 29.8L22.8732 29.9654L22.8732 29.9654L22.9857 29.8ZM19.4257 29.12V28.92H19.2257V29.12H19.4257ZM19.4257 35.68H19.2257V35.88H19.4257V35.68ZM18.2257 23.76L18.344 23.9213L18.3478 23.9184L18.2257 23.76ZM17.7457 24.3L17.5712 24.2018L17.5668 24.2106L17.7457 24.3ZM17.9657 24.84L17.7792 24.7678L17.7784 24.7698L17.9657 24.84ZM19.6457 24.54L19.4997 24.6769L19.5043 24.6814L19.6457 24.54ZM19.5657 26.32L19.6952 26.4724L19.6952 26.4724L19.5657 26.32ZM17.6057 26.22L17.461 26.3581L17.4643 26.3614L17.6057 26.22ZM18.2257 23.32L18.3374 23.4859L18.3395 23.4844L18.2257 23.32ZM24.4657 23.3L24.5617 23.1245L24.5617 23.1245L24.4657 23.3ZM22.3257 28.84L22.2875 28.6437L22.1257 28.6752V28.84H22.3257ZM22.3257 28.96H22.1257V29.1555L22.3211 29.1599L22.3257 28.96ZM25.1457 29.78L25.2628 29.6179L25.2628 29.6179L25.1457 29.78ZM15.8857 36H15.6857V36.2H15.8857V36ZM15.8857 35.68V35.48H15.6857V35.68H15.8857ZM17.3457 35.68V35.88H17.5457V35.68H17.3457ZM17.3457 28.3L17.4011 28.1078L17.1457 28.0342V28.3H17.3457ZM22.6457 27.76L22.7887 27.8998L22.7903 27.8982L22.6457 27.76ZM20.3657 35.88C21.6296 35.88 22.6026 35.6022 23.242 35.0063L22.9694 34.7137C22.4355 35.2112 21.5818 35.48 20.3657 35.48V35.88ZM23.242 35.0063C23.8854 34.4068 24.1857 33.4754 24.1857 32.26H23.7857C23.7857 33.4179 23.4993 34.2199 22.9694 34.7137L23.242 35.0063ZM24.1857 32.26C24.1857 31.0403 23.8423 30.1406 23.0982 29.6346L22.8732 29.9654C23.4625 30.366 23.7857 31.1063 23.7857 32.26H24.1857ZM23.0982 29.6346C22.3818 29.1475 21.2997 28.92 19.8857 28.92V29.32C21.2717 29.32 22.2562 29.5458 22.8732 29.9654L23.0982 29.6346ZM19.8857 28.92H19.4257V29.32H19.8857V28.92ZM19.2257 29.12V35.68H19.6257V29.12H19.2257ZM19.4257 35.88H20.3657V35.48H19.4257V35.88ZM23.7057 25.46C23.7057 24.6059 23.4503 23.932 22.9095 23.477C22.3753 23.0275 21.5956 22.82 20.6057 22.82V23.22C21.5492 23.22 22.2195 23.4192 22.6519 23.783C23.0778 24.1413 23.3057 24.6874 23.3057 25.46H23.7057ZM20.6057 22.82C19.6227 22.82 18.7844 23.0768 18.1036 23.6016L18.3478 23.9184C18.9471 23.4565 19.6953 23.22 20.6057 23.22V22.82ZM18.1074 23.5987C17.8848 23.762 17.7055 23.9634 17.5714 24.2019L17.92 24.3981C18.0259 24.2099 18.1666 24.0513 18.344 23.9213L18.1074 23.5987ZM17.5668 24.2106C17.4556 24.433 17.3857 24.6399 17.3857 24.82H17.7857C17.7857 24.7334 17.8225 24.5936 17.9246 24.3894L17.5668 24.2106ZM17.3857 24.82C17.3857 24.9054 17.4042 25.0068 17.4762 25.0879C17.5523 25.1734 17.655 25.2 17.7457 25.2V24.8C17.7373 24.8 17.7387 24.7988 17.7459 24.8015C17.7544 24.8046 17.7655 24.8113 17.7752 24.8221C17.7844 24.8325 17.7872 24.841 17.7875 24.8419C17.7875 24.8422 17.7857 24.8358 17.7857 24.82H17.3857ZM17.7457 25.2C17.8336 25.2 17.9218 25.1774 17.9983 25.1217C18.0739 25.0668 18.1227 24.9908 18.153 24.9102L17.7784 24.7698C17.7687 24.7958 17.7608 24.7999 17.7631 24.7983C17.7638 24.7977 17.7641 24.7978 17.7626 24.7982C17.7609 24.7988 17.7557 24.8 17.7457 24.8V25.2ZM18.1522 24.9122C18.22 24.7371 18.3148 24.6185 18.4308 24.542C18.5477 24.4649 18.702 24.42 18.9057 24.42V24.02C18.6428 24.02 18.4071 24.0784 18.2106 24.208C18.0133 24.3382 17.8714 24.5296 17.7792 24.7678L18.1522 24.9122ZM18.9057 24.42C19.144 24.42 19.3377 24.5039 19.4998 24.6768L19.7916 24.4032C19.5537 24.1494 19.2541 24.02 18.9057 24.02V24.42ZM19.5043 24.6814C19.6716 24.8488 19.7657 25.0864 19.7657 25.42H20.1657C20.1657 25.007 20.0465 24.6579 19.7871 24.3986L19.5043 24.6814ZM19.7657 25.42C19.7657 25.7391 19.6548 25.9817 19.4362 26.1676L19.6952 26.4724C20.0099 26.2049 20.1657 25.8476 20.1657 25.42H19.7657ZM19.4362 26.1676C19.2082 26.3614 18.935 26.46 18.6057 26.46V26.86C19.0231 26.86 19.3899 26.7319 19.6952 26.4724L19.4362 26.1676ZM18.6057 26.46C18.2915 26.46 18.0075 26.339 17.7471 26.0786L17.4643 26.3614C17.7906 26.6877 18.1732 26.86 18.6057 26.86V26.46ZM17.7504 26.0819C17.5102 25.8303 17.3857 25.5085 17.3857 25.1H16.9857C16.9857 25.5982 17.1412 26.0231 17.461 26.3581L17.7504 26.0819ZM17.3857 25.1C17.3857 24.4581 17.689 23.9223 18.3374 23.4859L18.114 23.1541C17.3758 23.651 16.9857 24.3019 16.9857 25.1H17.3857ZM18.3395 23.4844C18.9857 23.0371 19.9389 22.8 21.2257 22.8V22.4C19.8991 22.4 18.8524 22.6429 18.1119 23.1556L18.3395 23.4844ZM21.2257 22.8C22.5099 22.8 23.5542 23.0295 24.3697 23.4755L24.5617 23.1245C23.6705 22.6372 22.5549 22.4 21.2257 22.4V22.8ZM24.3697 23.4755C24.7714 23.6951 25.063 23.9642 25.2549 24.2791C25.4466 24.5936 25.5457 24.9649 25.5457 25.4H25.9457C25.9457 24.9018 25.8315 24.4564 25.5965 24.0709C25.3618 23.6858 25.0133 23.3715 24.5617 23.1245L24.3697 23.4755ZM25.5457 25.4C25.5457 26.2691 25.2522 26.9681 24.669 27.514L24.9424 27.806C25.6126 27.1786 25.9457 26.3709 25.9457 25.4H25.5457ZM24.669 27.514C24.0752 28.0699 23.2853 28.4493 22.2875 28.6437L22.3639 29.0363C23.4194 28.8307 24.2828 28.4235 24.9424 27.806L24.669 27.514ZM22.1257 28.84V28.96H22.5257V28.84H22.1257ZM22.3211 29.1599C23.4529 29.186 24.3501 29.4521 25.0286 29.9421L25.2628 29.6179C24.5013 29.0679 23.5185 28.7874 22.3303 28.7601L22.3211 29.1599ZM25.0286 29.9421C25.6879 30.4183 26.0257 31.1261 26.0257 32.1H26.4257C26.4257 31.0206 26.0435 30.1817 25.2628 29.6179L25.0286 29.9421ZM26.0257 32.1C26.0257 33.346 25.5856 34.2547 24.7209 34.8613C23.8432 35.4769 22.5018 35.8 20.6657 35.8V36.2C22.5363 36.2 23.9749 35.8731 24.9506 35.1887C25.9391 34.4953 26.4257 33.454 26.4257 32.1H26.0257ZM20.6657 35.8H15.8857V36.2H20.6657V35.8ZM16.0857 36V35.68H15.6857V36H16.0857ZM15.8857 35.88H17.3457V35.48H15.8857V35.88ZM17.5457 35.68V28.3H17.1457V35.68H17.5457ZM17.2903 28.4922C18.0997 28.7254 19.0526 28.84 20.1457 28.84V28.44C19.0788 28.44 18.1651 28.3279 17.4011 28.1078L17.2903 28.4922ZM20.1457 28.84C21.2743 28.84 22.1665 28.5365 22.7887 27.8998L22.5027 27.6202C21.9782 28.1569 21.2038 28.44 20.1457 28.44V28.84ZM22.7903 27.8982C23.4037 27.2562 23.7057 26.4378 23.7057 25.46H23.3057C23.3057 26.3488 23.0343 27.0638 22.5011 27.6218L22.7903 27.8982ZM32.2382 35.68H32.0382V35.88H32.2382V35.68ZM33.8982 35.68H34.0982V35.48H33.8982V35.68ZM33.8982 36V36.2H34.0982V36H33.8982ZM28.6982 36H28.4982V36.2H28.6982V36ZM28.6982 35.68V35.48H28.4982V35.68H28.6982ZM30.1582 35.68V35.88H30.3582V35.68H30.1582ZM30.1582 24.24L30.115 24.0447L29.9582 24.0794V24.24H30.1582ZM32.2382 23.78H32.4382V23.5309L32.195 23.5847L32.2382 23.78ZM32.0382 23.56L31.9411 23.3852L31.9411 23.3852L32.0382 23.56ZM32.4582 20.72L32.5899 20.5695L32.5899 20.5695L32.4582 20.72ZM30.3582 20.66L30.2206 20.5148L30.2168 20.5186L30.3582 20.66ZM30.3782 21.42L30.1917 21.3478L30.1909 21.3498L30.3782 21.42ZM32.0382 21.12L31.8922 21.2569L31.8968 21.2614L32.0382 21.12ZM31.9582 22.9L31.8287 22.7476L31.8287 22.7476L31.9582 22.9ZM29.9982 22.8L29.8535 22.9381L29.8568 22.9414L29.9982 22.8ZM30.0782 20.44L29.9368 20.2986L29.9368 20.2986L30.0782 20.44ZM32.7182 20.48L32.5794 20.624L32.5819 20.6264L32.7182 20.48ZM32.2782 23.84L32.1768 23.6676L32.1753 23.6685L32.2782 23.84ZM28.7382 24.36H28.5382V24.5378L28.7148 24.5586L28.7382 24.36ZM28.7382 23.98L28.7616 23.7814L28.5382 23.7551V23.98H28.7382ZM32.2382 35.88H33.8982V35.48H32.2382V35.88ZM33.6982 35.68V36H34.0982V35.68H33.6982ZM33.8982 35.8H28.6982V36.2H33.8982V35.8ZM28.8982 36V35.68H28.4982V36H28.8982ZM28.6982 35.88H30.1582V35.48H28.6982V35.88ZM30.3582 35.68V24.24H29.9582V35.68H30.3582ZM30.2014 24.4353L32.2814 23.9753L32.195 23.5847L30.115 24.0447L30.2014 24.4353ZM32.0382 23.78V35.68H32.4382V23.78H32.0382ZM29.8182 24.26C30.7228 24.26 31.4984 24.0887 32.1353 23.7348L31.9411 23.3852C31.378 23.698 30.6736 23.86 29.8182 23.86V24.26ZM32.1353 23.7348C32.7932 23.3694 33.1382 22.8189 33.1382 22.1H32.7382C32.7382 22.6611 32.4832 23.084 31.9411 23.3852L32.1353 23.7348ZM33.1382 22.1C33.1382 21.4317 32.9714 20.9033 32.5899 20.5695L32.3265 20.8705C32.585 21.0967 32.7382 21.4883 32.7382 22.1H33.1382ZM32.5899 20.5695C32.2346 20.2586 31.8215 20.1 31.3582 20.1V20.5C31.7216 20.5 32.0418 20.6214 32.3265 20.8705L32.5899 20.5695ZM31.3582 20.1C30.9038 20.1 30.5178 20.2333 30.2207 20.5148L30.4958 20.8052C30.7052 20.6067 30.986 20.5 31.3582 20.5V20.1ZM30.2168 20.5186C29.9672 20.7682 29.7982 21.0308 29.7982 21.3H30.1982C30.1982 21.1959 30.2692 21.0318 30.4996 20.8014L30.2168 20.5186ZM29.7982 21.3C29.7982 21.4058 29.8122 21.5176 29.8646 21.6092C29.9265 21.7176 30.0324 21.78 30.1582 21.78V21.38C30.1615 21.38 30.174 21.381 30.189 21.3897C30.2039 21.3984 30.2106 21.4086 30.2119 21.4108C30.2124 21.4117 30.2085 21.405 30.2047 21.3851C30.2009 21.3655 30.1982 21.3377 30.1982 21.3H29.7982ZM30.1582 21.78C30.2461 21.78 30.3343 21.7574 30.4108 21.7017C30.4864 21.6468 30.5352 21.5708 30.5655 21.4902L30.1909 21.3498C30.1812 21.3758 30.1733 21.3799 30.1756 21.3783C30.1763 21.3777 30.1766 21.3778 30.1751 21.3782C30.1734 21.3788 30.1682 21.38 30.1582 21.38V21.78ZM30.5647 21.4922C30.6329 21.3159 30.7268 21.1971 30.84 21.1209C30.9535 21.0444 31.1023 21 31.2982 21V20.6C31.0408 20.6 30.8096 20.659 30.6164 20.7891C30.4229 20.9196 30.2835 21.1107 30.1917 21.3478L30.5647 21.4922ZM31.2982 21C31.5365 21 31.7302 21.0839 31.8923 21.2568L32.1841 20.9832C31.9462 20.7294 31.6466 20.6 31.2982 20.6V21ZM31.8968 21.2614C32.0641 21.4288 32.1582 21.6664 32.1582 22H32.5582C32.5582 21.587 32.439 21.2379 32.1796 20.9786L31.8968 21.2614ZM32.1582 22C32.1582 22.3191 32.0473 22.5617 31.8287 22.7476L32.0877 23.0524C32.4024 22.7849 32.5582 22.4276 32.5582 22H32.1582ZM31.8287 22.7476C31.6007 22.9414 31.3275 23.04 30.9982 23.04V23.44C31.4156 23.44 31.7824 23.3119 32.0877 23.0524L31.8287 22.7476ZM30.9982 23.04C30.684 23.04 30.4 22.919 30.1396 22.6586L29.8568 22.9414C30.1831 23.2677 30.5657 23.44 30.9982 23.44V23.04ZM30.1429 22.6619C29.9038 22.4114 29.7782 22.0836 29.7782 21.66H29.3782C29.3782 22.1698 29.5326 22.6019 29.8535 22.9381L30.1429 22.6619ZM29.7782 21.66C29.7782 21.232 29.9246 20.8765 30.2196 20.5814L29.9368 20.2986C29.5652 20.6702 29.3782 21.128 29.3782 21.66H29.7782ZM30.2196 20.5814C30.5114 20.2896 30.8852 20.14 31.3582 20.14V19.74C30.7912 19.74 30.3117 19.9237 29.9368 20.2986L30.2196 20.5814ZM31.3582 20.14C31.8414 20.14 32.2445 20.301 32.5794 20.624L32.857 20.336C32.4453 19.939 31.9417 19.74 31.3582 19.74V20.14ZM32.5819 20.6264C32.9213 20.9424 33.0982 21.3724 33.0982 21.94H33.4982C33.4982 21.2809 33.2884 20.7376 32.8545 20.3336L32.5819 20.6264ZM33.0982 21.94C33.0982 22.7442 32.7888 23.3076 32.1768 23.6676L32.3796 24.0124C33.1276 23.5724 33.4982 22.8691 33.4982 21.94H33.0982ZM32.1753 23.6685C31.547 24.0455 30.7582 24.24 29.7982 24.24V24.64C30.8115 24.64 31.676 24.4345 32.3811 24.0115L32.1753 23.6685ZM29.7982 24.24C29.5565 24.24 29.2122 24.2144 28.7616 24.1614L28.7148 24.5586C29.1708 24.6123 29.5332 24.64 29.7982 24.64V24.24ZM28.9382 24.36V23.98H28.5382V24.36H28.9382ZM28.7148 24.1786C29.1713 24.2323 29.5402 24.26 29.8182 24.26V23.86C29.5629 23.86 29.2118 23.8343 28.7616 23.7814L28.7148 24.1786ZM37.5885 36H37.3885V36.2H37.5885V36ZM37.5885 35.68V35.48H37.3885V35.68H37.5885ZM39.0485 35.68V35.88H39.2485V35.68H39.0485ZM39.0485 23.12H39.2485V22.9785L39.1151 22.9314L39.0485 23.12ZM38.7085 23L38.6402 23.188L38.642 23.1886L38.7085 23ZM37.9885 22.74L37.9183 22.9273L37.9208 22.9282L37.9885 22.74ZM37.1885 22.46L37.1289 22.6509L37.1289 22.6509L37.1885 22.46ZM34.5085 22.5L34.6262 22.6618L34.6308 22.6583L34.5085 22.5ZM34.4485 23.28L34.262 23.2078L34.2612 23.2098L34.4485 23.28ZM36.1085 22.98L35.9625 23.1169L35.9671 23.1214L36.1085 22.98ZM36.0285 24.76L36.158 24.9124L36.158 24.9124L36.0285 24.76ZM34.0885 24.66L34.2332 24.5219L34.2299 24.5186L34.0885 24.66ZM34.4085 22.12L34.3007 21.9515L34.2956 21.9549L34.4085 22.12ZM36.8085 21.98L36.7543 22.1727L36.7614 22.1744L36.8085 21.98ZM38.3485 22.48L38.2764 22.6666L38.2802 22.668L38.3485 22.48ZM39.5085 22.88L39.5673 22.6888L39.5635 22.6877L39.5085 22.88ZM45.5485 23.22L45.6831 23.368L45.6855 23.3658L45.5485 23.22ZM45.8485 20.84L45.7033 20.9776L45.7071 20.9814L45.8485 20.84ZM45.0885 20.84L45.1607 20.6535L45.1587 20.6527L45.0885 20.84ZM45.3885 22.52L45.5254 22.666L45.5299 22.6614L45.3885 22.52ZM43.6085 22.42L43.4561 22.5495L43.4561 22.5495L43.6085 22.42ZM43.7085 20.48L43.8466 20.6247L43.8499 20.6214L43.7085 20.48ZM46.0685 20.56L45.9214 20.6958L45.9271 20.7014L46.0685 20.56ZM45.8285 23.48L45.6871 23.3386L45.6871 23.3386L45.8285 23.48ZM41.1285 23.76L41.1828 23.5675L40.9285 23.4958V23.76H41.1285ZM41.1285 35.68H40.9285V35.88H41.1285V35.68ZM42.7885 35.68H42.9885V35.48H42.7885V35.68ZM42.7885 36V36.2H42.9885V36H42.7885ZM37.7885 36V35.68H37.3885V36H37.7885ZM37.5885 35.88H39.0485V35.48H37.5885V35.88ZM39.2485 35.68V23.12H38.8485V35.68H39.2485ZM39.1151 22.9314L38.7751 22.8114L38.642 23.1886L38.982 23.3086L39.1151 22.9314ZM38.7769 22.812C38.6299 22.7586 38.3896 22.6718 38.0563 22.5518L37.9208 22.9282C38.2541 23.0482 38.4938 23.1347 38.6402 23.188L38.7769 22.812ZM38.0587 22.5527C37.7369 22.432 37.4664 22.3373 37.2482 22.2691L37.1289 22.6509C37.3373 22.716 37.6002 22.808 37.9183 22.9273L38.0587 22.5527ZM37.2482 22.2691C36.5986 22.0661 36.0435 21.96 35.5885 21.96V22.36C35.9868 22.36 36.4985 22.4539 37.1289 22.6509L37.2482 22.2691ZM35.5885 21.96C35.1246 21.96 34.7197 22.084 34.3862 22.3417L34.6308 22.6583C34.884 22.4626 35.1991 22.36 35.5885 22.36V21.96ZM34.3909 22.3383C34.0595 22.5793 33.8685 22.8874 33.8685 23.26H34.2685C34.2685 23.0459 34.3709 22.8474 34.6261 22.6617L34.3909 22.3383ZM33.8685 23.26C33.8685 23.3454 33.887 23.4468 33.959 23.5279C34.0351 23.6134 34.1379 23.64 34.2285 23.64V23.24C34.2201 23.24 34.2215 23.2388 34.2287 23.2415C34.2372 23.2446 34.2483 23.2513 34.258 23.2621C34.2672 23.2725 34.27 23.281 34.2703 23.2819C34.2703 23.2822 34.2685 23.2758 34.2685 23.26H33.8685ZM34.2285 23.64C34.3164 23.64 34.4046 23.6174 34.4812 23.5617C34.5567 23.5068 34.6056 23.4308 34.6358 23.3502L34.2612 23.2098C34.2515 23.2358 34.2436 23.2399 34.2459 23.2383C34.2466 23.2377 34.2469 23.2378 34.2454 23.2382C34.2437 23.2388 34.2385 23.24 34.2285 23.24V23.64ZM34.635 23.3522C34.7033 23.1759 34.7971 23.0571 34.9103 22.9809C35.0238 22.9044 35.1726 22.86 35.3685 22.86V22.46C35.1111 22.46 34.8799 22.519 34.6867 22.6491C34.4932 22.7796 34.3538 22.9707 34.262 23.2078L34.635 23.3522ZM35.3685 22.86C35.6068 22.86 35.8006 22.9439 35.9626 23.1168L36.2544 22.8432C36.0165 22.5894 35.7169 22.46 35.3685 22.46V22.86ZM35.9671 23.1214C36.1344 23.2888 36.2285 23.5264 36.2285 23.86H36.6285C36.6285 23.447 36.5093 23.0979 36.2499 22.8386L35.9671 23.1214ZM36.2285 23.86C36.2285 24.1791 36.1177 24.4217 35.899 24.6076L36.158 24.9124C36.4727 24.6449 36.6285 24.2875 36.6285 23.86H36.2285ZM35.899 24.6076C35.671 24.8014 35.3978 24.9 35.0685 24.9V25.3C35.4859 25.3 35.8527 25.1719 36.158 24.9124L35.899 24.6076ZM35.0685 24.9C34.7549 24.9 34.4791 24.7795 34.2332 24.5219L33.9438 24.7981C34.258 25.1272 34.6355 25.3 35.0685 25.3V24.9ZM34.2299 24.5186C33.9831 24.2717 33.8485 23.9211 33.8485 23.44H33.4485C33.4485 23.9989 33.6073 24.4616 33.9471 24.8014L34.2299 24.5186ZM33.8485 23.44C33.8485 22.9835 34.0597 22.601 34.5215 22.2851L34.2956 21.9549C33.744 22.3324 33.4485 22.8299 33.4485 23.44H33.8485ZM34.5163 22.2885C34.816 22.0967 35.1516 22 35.5285 22V21.6C35.0788 21.6 34.6677 21.7167 34.3007 21.9515L34.5163 22.2885ZM35.5285 22C35.9362 22 36.3446 22.0573 36.7544 22.1725L36.8627 21.7875C36.4191 21.6627 35.9742 21.6 35.5285 21.6V22ZM36.7614 22.1744C37.1904 22.2784 37.695 22.4419 38.2764 22.6666L38.4206 22.2934C37.8287 22.0647 37.3067 21.895 36.8556 21.7856L36.7614 22.1744ZM38.2802 22.668C38.8654 22.8808 39.2589 23.0167 39.4536 23.0723L39.5635 22.6877C39.3848 22.6367 39.005 22.5059 38.4169 22.292L38.2802 22.668ZM39.4498 23.0712C41.4865 23.6968 42.9208 24.02 43.7285 24.02V23.62C42.9896 23.62 41.6105 23.3165 39.5672 22.6888L39.4498 23.0712ZM43.7285 24.02C44.5362 24.02 45.1963 23.8105 45.6831 23.368L45.414 23.072C45.0208 23.4295 44.4675 23.62 43.7285 23.62V24.02ZM45.6855 23.3658C46.1532 22.9263 46.4085 22.4369 46.4085 21.9H46.0085C46.0085 22.2964 45.8238 22.687 45.4116 23.0742L45.6855 23.3658ZM46.4085 21.9C46.4085 21.4006 46.2797 20.9884 45.9899 20.6986L45.7071 20.9814C45.8973 21.1716 46.0085 21.4661 46.0085 21.9H46.4085ZM45.9937 20.7025C45.7456 20.4406 45.482 20.26 45.2085 20.26V20.66C45.3084 20.66 45.4714 20.7327 45.7033 20.9775L45.9937 20.7025ZM45.2085 20.26C45.1027 20.26 44.991 20.274 44.8993 20.3264C44.7909 20.3883 44.7285 20.4942 44.7285 20.62H45.1285C45.1285 20.6233 45.1275 20.6358 45.1188 20.6508C45.1101 20.6657 45.0999 20.6724 45.0977 20.6736C45.0968 20.6742 45.1035 20.6703 45.1234 20.6665C45.143 20.6627 45.1708 20.66 45.2085 20.66V20.26ZM44.7285 20.62C44.7285 20.7079 44.7511 20.7961 44.8068 20.8726C44.8617 20.9482 44.9377 20.997 45.0183 21.0273L45.1587 20.6527C45.1327 20.643 45.1286 20.6351 45.1303 20.6374C45.1308 20.6381 45.1307 20.6384 45.1303 20.6369C45.1298 20.6352 45.1285 20.63 45.1285 20.62H44.7285ZM45.0163 21.0265C45.1926 21.0947 45.3114 21.1886 45.3877 21.3018C45.4642 21.4153 45.5085 21.5641 45.5085 21.76H45.9085C45.9085 21.5026 45.8495 21.2714 45.7194 21.0782C45.589 20.8847 45.3978 20.7453 45.1607 20.6535L45.0163 21.0265ZM45.5085 21.76C45.5085 21.9986 45.4241 22.2016 45.2471 22.3786L45.5299 22.6614C45.7796 22.4118 45.9085 22.108 45.9085 21.76H45.5085ZM45.2517 22.3741C45.0849 22.5305 44.8456 22.62 44.5085 22.62V23.02C44.9181 23.02 45.2655 22.9095 45.5253 22.6659L45.2517 22.3741ZM44.5085 22.62C44.1894 22.62 43.9468 22.5091 43.7609 22.2905L43.4561 22.5495C43.7236 22.8642 44.081 23.02 44.5085 23.02V22.62ZM43.7609 22.2905C43.5671 22.0625 43.4685 21.7893 43.4685 21.46H43.0685C43.0685 21.8774 43.1966 22.2442 43.4561 22.5495L43.7609 22.2905ZM43.4685 21.46C43.4685 21.1463 43.589 20.8705 43.8466 20.6247L43.5704 20.3353C43.2413 20.6495 43.0685 21.027 43.0685 21.46H43.4685ZM43.8499 20.6214C44.0998 20.3715 44.4325 20.24 44.8685 20.24V19.84C44.3445 19.84 43.9039 20.0018 43.5671 20.3386L43.8499 20.6214ZM44.8685 20.24C45.2938 20.24 45.6402 20.3908 45.9216 20.6957L46.2155 20.4243C45.8569 20.0359 45.4032 19.84 44.8685 19.84V20.24ZM45.9271 20.7014C46.216 20.9903 46.3685 21.3823 46.3685 21.9H46.7685C46.7685 21.2977 46.5877 20.7964 46.2099 20.4186L45.9271 20.7014ZM46.3685 21.9C46.3685 22.3946 46.1527 22.873 45.6871 23.3386L45.9699 23.6214C46.491 23.1003 46.7685 22.5254 46.7685 21.9H46.3685ZM45.6871 23.3386C45.2519 23.7738 44.6601 24 43.8885 24V24.4C44.7436 24.4 45.4452 24.1462 45.9699 23.6214L45.6871 23.3386ZM43.8885 24C43.112 24 42.2109 23.8575 41.1828 23.5675L41.0742 23.9525C42.1261 24.2492 43.065 24.4 43.8885 24.4V24ZM40.9285 23.76V35.68H41.3285V23.76H40.9285ZM41.1285 35.88H42.7885V35.48H41.1285V35.88ZM42.5885 35.68V36H42.9885V35.68H42.5885ZM42.7885 35.8H37.5885V36.2H42.7885V35.8Z" fill="#05386B"/>
</g>
<g filter="url(#filter1_d_174_53)">
<path d="M49.6177 26.4C50.6177 26.4 51.451 26.6133 52.1177 27.04C52.7977 27.4667 53.1377 28.1067 53.1377 28.96C53.1377 30.28 52.3843 31.0933 50.8777 31.4C50.1177 31.5467 49.171 31.62 48.0377 31.62H47.0977V32.2C47.0977 33.28 47.3177 34.16 47.7577 34.84C48.211 35.5067 48.8643 35.84 49.7177 35.84C50.5843 35.84 51.2577 35.5867 51.7377 35.08C52.231 34.5733 52.5777 33.92 52.7777 33.12L53.1377 33.16C52.9243 34.1333 52.491 34.92 51.8377 35.52C51.1977 36.1067 50.3843 36.4 49.3977 36.4C48.011 36.4 46.9577 35.9467 46.2377 35.04C45.5177 34.12 45.1577 32.9067 45.1577 31.4C45.1577 29.8933 45.5443 28.6867 46.3177 27.78C47.091 26.86 48.191 26.4 49.6177 26.4ZM47.0977 31.26H47.7977C48.8777 31.26 49.631 31.1533 50.0577 30.94C50.4977 30.7267 50.7977 30.4667 50.9577 30.16C51.1177 29.84 51.1977 29.3933 51.1977 28.82C51.1977 28.2467 51.051 27.76 50.7577 27.36C50.4777 26.9467 50.0443 26.74 49.4577 26.74C48.871 26.74 48.391 26.9533 48.0177 27.38C47.6577 27.7933 47.411 28.28 47.2777 28.84C47.1577 29.4 47.0977 30.02 47.0977 30.7V31.26Z" fill="#379683"/>
<path d="M52.1177 27.04L52.0098 27.2085L52.0114 27.2094L52.1177 27.04ZM50.8777 31.4L50.9156 31.5964L50.9175 31.596L50.8777 31.4ZM47.0977 31.62V31.42H46.8977V31.62H47.0977ZM47.7577 34.84L47.5897 34.9487L47.5923 34.9525L47.7577 34.84ZM51.7377 35.08L51.5943 34.9405L51.5925 34.9425L51.7377 35.08ZM52.7777 33.12L52.7997 32.9212L52.626 32.9019L52.5836 33.0715L52.7777 33.12ZM53.1377 33.16L53.333 33.2028L53.3806 32.9858L53.1597 32.9612L53.1377 33.16ZM51.8377 35.52L51.9728 35.6674L51.9729 35.6673L51.8377 35.52ZM46.2377 35.04L46.0802 35.1633L46.081 35.1644L46.2377 35.04ZM46.3177 27.78L46.4698 27.9098L46.4708 27.9087L46.3177 27.78ZM47.0977 31.26H46.8977V31.46H47.0977V31.26ZM50.0577 30.94L49.9704 30.76L49.9682 30.7611L50.0577 30.94ZM50.9577 30.16L51.135 30.2525L51.1365 30.2494L50.9577 30.16ZM50.7577 27.36L50.592 27.4722L50.5964 27.4783L50.7577 27.36ZM48.0177 27.38L47.8671 27.2483L47.8668 27.2486L48.0177 27.38ZM47.2777 28.84L47.083 28.7937L47.0821 28.7981L47.2777 28.84ZM49.6177 26.6C50.5894 26.6 51.3829 26.8072 52.0098 27.2085L52.2255 26.8715C51.5191 26.4195 50.6459 26.2 49.6177 26.2V26.6ZM52.0114 27.2094C52.6288 27.5968 52.9377 28.1703 52.9377 28.96H53.3377C53.3377 28.0431 52.9666 27.3365 52.224 26.8706L52.0114 27.2094ZM52.9377 28.96C52.9377 29.5798 52.762 30.0613 52.4259 30.4241C52.0868 30.7902 51.5655 31.0559 50.8378 31.204L50.9175 31.596C51.6964 31.4374 52.3052 31.1431 52.7194 30.6959C53.1366 30.2454 53.3377 29.6602 53.3377 28.96H52.9377ZM50.8398 31.2036C50.0965 31.3471 49.1635 31.42 48.0377 31.42V31.82C49.1784 31.82 50.1388 31.7463 50.9156 31.5964L50.8398 31.2036ZM48.0377 31.42H47.0977V31.82H48.0377V31.42ZM46.8977 31.62V32.2H47.2977V31.62H46.8977ZM46.8977 32.2C46.8977 33.306 47.1229 34.2271 47.5897 34.9487L47.9256 34.7313C47.5124 34.0929 47.2977 33.254 47.2977 32.2H46.8977ZM47.5923 34.9525C48.0854 35.6776 48.8027 36.04 49.7177 36.04V35.64C48.9259 35.64 48.3366 35.3357 47.923 34.7275L47.5923 34.9525ZM49.7177 36.04C50.6251 36.04 51.3563 35.7733 51.8828 35.2175L51.5925 34.9425C51.159 35.4 50.5436 35.64 49.7177 35.64V36.04ZM51.881 35.2195C52.4028 34.6836 52.7646 33.997 52.9717 33.1685L52.5836 33.0715C52.3908 33.843 52.0592 34.4631 51.5944 34.9405L51.881 35.2195ZM52.7556 33.3188L53.1156 33.3588L53.1597 32.9612L52.7997 32.9212L52.7556 33.3188ZM52.9423 33.1172C52.7366 34.0555 52.3217 34.8039 51.7024 35.3727L51.9729 35.6673C52.6602 35.0361 53.112 34.2112 53.333 33.2028L52.9423 33.1172ZM51.7025 35.3726C51.1045 35.9208 50.3416 36.2 49.3977 36.2V36.6C50.427 36.6 51.2908 36.2926 51.9728 35.6674L51.7025 35.3726ZM49.3977 36.2C48.0586 36.2 47.0687 35.7649 46.3943 34.9156L46.081 35.1644C46.8466 36.1284 47.9634 36.6 49.3977 36.6V36.2ZM46.3952 34.9167C45.7098 34.041 45.3577 32.8751 45.3577 31.4H44.9577C44.9577 32.9383 45.3255 34.199 46.0802 35.1633L46.3952 34.9167ZM45.3577 31.4C45.3577 29.928 45.7348 28.7715 46.4698 27.9098L46.1655 27.6502C45.3538 28.6018 44.9577 29.8587 44.9577 31.4H45.3577ZM46.4708 27.9087C47.1989 27.0425 48.2378 26.6 49.6177 26.6V26.2C48.1441 26.2 46.9831 26.6775 46.1646 27.6513L46.4708 27.9087ZM47.0977 31.46H47.7977V31.06H47.0977V31.46ZM47.7977 31.46C48.8789 31.46 49.6747 31.3551 50.1471 31.1189L49.9682 30.7611C49.5873 30.9516 48.8764 31.06 47.7977 31.06V31.46ZM50.1449 31.12C50.608 30.8954 50.9484 30.6101 51.135 30.2525L50.7803 30.0675C50.6469 30.3232 50.3873 30.5579 49.9704 30.76L50.1449 31.12ZM51.1365 30.2494C51.3163 29.8898 51.3977 29.4077 51.3977 28.82H50.9977C50.9977 29.379 50.919 29.7902 50.7788 30.0706L51.1365 30.2494ZM51.3977 28.82C51.3977 28.211 51.2412 27.6812 50.9189 27.2417L50.5964 27.4783C50.8608 27.8388 50.9977 28.2823 50.9977 28.82H51.3977ZM50.9232 27.2478C50.5991 26.7693 50.0973 26.54 49.4577 26.54V26.94C49.9914 26.94 50.3562 27.124 50.5921 27.4722L50.9232 27.2478ZM49.4577 26.54C48.8156 26.54 48.2799 26.7765 47.8671 27.2483L48.1682 27.5117C48.502 27.1301 48.9264 26.94 49.4577 26.94V26.54ZM47.8668 27.2486C47.4845 27.6876 47.2235 28.2038 47.0831 28.7937L47.4722 28.8863C47.5984 28.3562 47.8308 27.8991 48.1685 27.5114L47.8668 27.2486ZM47.0821 28.7981C46.9587 29.3741 46.8977 30.0085 46.8977 30.7H47.2977C47.2977 30.0315 47.3567 29.4259 47.4732 28.8819L47.0821 28.7981ZM46.8977 30.7V31.26H47.2977V30.7H46.8977Z" fill="#379683"/>
</g>
<defs>
<filter id="filter0_d_174_53" x="4.04785" y="19.9404" width="46.5205" height="24.0596" filterUnits="userSpaceOnUse" color-interpolation-filters="sRGB">
<feFlood flood-opacity="0" result="BackgroundImageFix"/>
<feColorMatrix in="SourceAlpha" type="matrix" values="0 0 0 0 0 0 0 0 0 0 0 0 0 0 0 0 0 0 127 0" result="hardAlpha"/>
<feOffset dy="4"/>
<feGaussianBlur stdDeviation="2"/>
<feComposite in2="hardAlpha" operator="out"/>
<feColorMatrix type="matrix" values="0 0 0 0 0 0 0 0 0 0 0 0 0 0 0 0 0 0 0.25 0"/>
<feBlend mode="normal" in2="BackgroundImageFix" result="effect1_dropShadow_174_53"/>
<feBlend mode="normal" in="SourceGraphic" in2="effect1_dropShadow_174_53" result="shape"/>
</filter>
<filter id="filter1_d_174_53" x="41.1572" y="26.4004" width="15.9805" height="18" filterUnits="userSpaceOnUse" color-interpolation-filters="sRGB">
<feFlood flood-opacity="0" result="BackgroundImageFix"/>
<feColorMatrix in="SourceAlpha" type="matrix" values="0 0 0 0 0 0 0 0 0 0 0 0 0 0 0 0 0 0 127 0" result="hardAlpha"/>
<feOffset dy="4"/>
<feGaussianBlur stdDeviation="2"/>
<feComposite in2="hardAlpha" operator="out"/>
<feColorMatrix type="matrix" values="0 0 0 0 0 0 0 0 0 0 0 0 0 0 0 0 0 0 0.25 0"/>
<feBlend mode="normal" in2="BackgroundImageFix" result="effect1_dropShadow_174_53"/>
<feBlend mode="normal" in="SourceGraphic" in2="effect1_dropShadow_174_53" result="shape"/>
</filter>
</defs>
</svg>
